<?xml version="1.0" encoding="UTF-8" standalone="no"?>
<!-- Generator: Adobe Illustrator 22.0.1, SVG Export Plug-In . SVG Version: 6.00 Build 0)  -->

<svg
   xmlns:dc="http://purl.org/dc/elements/1.1/"
   xmlns:cc="http://creativecommons.org/ns#"
   xmlns:rdf="http://www.w3.org/1999/02/22-rdf-syntax-ns#"
   xmlns:svg="http://www.w3.org/2000/svg"
   xmlns="http://www.w3.org/2000/svg"
   xmlns:sodipodi="http://sodipodi.sourceforge.net/DTD/sodipodi-0.dtd"
   xmlns:inkscape="http://www.inkscape.org/namespaces/inkscape"
   version="1.1"
   x="0px"
   y="0px"
   viewBox="0 0 332.54245 314.625"
   xml:space="preserve"
   id="svg3823"
   sodipodi:docname="final_logo.svg"
   width="332.54245"
   height="314.625"
   inkscape:version="0.92.3 (2405546, 2018-03-11)"><metadata
   id="metadata3829"><rdf:RDF><cc:Work
       rdf:about=""><dc:format>image/svg+xml</dc:format><dc:type
         rdf:resource="http://purl.org/dc/dcmitype/StillImage" /><dc:title></dc:title></cc:Work></rdf:RDF></metadata><defs
   id="defs3827" /><sodipodi:namedview
   pagecolor="#ffffff"
   bordercolor="#666666"
   borderopacity="1"
   objecttolerance="10"
   gridtolerance="10"
   guidetolerance="10"
   inkscape:pageopacity="0"
   inkscape:pageshadow="2"
   inkscape:window-width="2560"
   inkscape:window-height="1373"
   id="namedview3825"
   showgrid="false"
   fit-margin-top="0"
   fit-margin-left="0"
   fit-margin-right="0"
   fit-margin-bottom="0"
   inkscape:zoom="1.6744289"
   inkscape:cx="137.51637"
   inkscape:cy="71.369922"
   inkscape:window-x="0"
   inkscape:window-y="28"
   inkscape:window-maximized="1"
   inkscape:current-layer="Layer_1" />
<style
   type="text/css"
   id="style3791">
	.st0{fill:none;}
	.st1{fill:#4C514F;}
	.st2{font-family:'Porta-Bold';}
	.st3{font-size:38.3746px;}
	.st4{font-family:'Porta-Light';}
	.st5{fill:#255960;}
	.st6{fill:#58C2CB;}
	.st7{fill:#91D5D7;}
</style>
<g
   id="Layer_2"
   transform="translate(-83.757545,-30.175)">
</g>
<g
   id="Layer_1"
   transform="translate(-83.757545,-30.175)">
	<rect
   x="126.6"
   y="382.29999"
   class="st0"
   width="246.7"
   height="87.5"
   id="rect3794"
   style="fill:none" />
	
	<g
   inkscape:groupmode="layer"
   id="layer1"
   inkscape:label="Layer 1" />
<g
   id="g3820">
		<path
   class="st5"
   d="M 218.1,114.2 C 234,86.8 249,60.9 264.5,34 c 8.8,15.3 17.3,29.7 25.6,44.2 15.5,26.9 31.1,53.8 46.4,80.9 1.2,2.1 2.3,5.6 1.3,7.3 -15.3,27.1 -30.9,53.9 -46.9,81.6 -7.1,-12.2 -13.9,-23.6 -20.3,-35.2 -0.8,-1.5 0.2,-4.5 1.2,-6.3 6.8,-12.1 13.6,-24.1 20.8,-35.9 2.7,-4.4 2.6,-7.7 0,-12.1 -7.9,-13.1 -15.5,-26.4 -23,-39.8 -1.9,-3.4 -4.2,-4.6 -8.1,-4.5 -13.9,0.2 -27.9,0 -43.4,0 z"
   id="path3802"
   inkscape:connector-curvature="0"
   style="fill:#255960" />
		<path
   class="st6"
   d="m 283.5,168.7 c -7.2,12.4 -13.6,23.9 -20.4,35.2 -0.9,1.5 -3.8,2.4 -5.9,2.4 -14.9,0.2 -29.8,-0.1 -44.7,0.3 -2.6,0.1 -6.1,2 -7.4,4.2 -8.2,13.4 -15.8,27.2 -24,40.7 -2.1,3.4 -1.9,5.9 0,9.2 6.2,10.2 12,20.6 18,30.9 1.1,2 2.1,4 3.4,6.6 -30.3,0 -59.8,0 -89.8,0 0.7,-1.7 1.3,-3.2 2.1,-4.6 23.1,-40 46.1,-80.1 69.4,-120 1.3,-2.3 4.5,-5 6.9,-5 29.4,-0.4 58.8,-0.3 88.2,-0.3 0.9,0.2 1.9,0.3 4.2,0.4 z"
   id="path3804"
   inkscape:connector-curvature="0"
   style="fill:#58c2cb" />
		<path
   class="st7"
   d="m 218.7,215.1 c 14.3,0 27.5,-0.2 40.7,0.2 1.7,0 3.8,2.4 4.9,4.2 7.3,12.3 14.5,24.6 21.4,37 2,3.6 4.3,5 8.6,4.9 15.8,-0.3 31.5,-0.4 47.3,-0.1 4.4,0.1 6.5,-1.6 8.4,-5.1 6.6,-11.9 13.5,-23.6 21,-36.5 15.3,26.5 30.1,52.2 45.3,78.6 -3.1,0.1 -5.4,0.3 -7.6,0.3 -45.2,0 -90.4,-0.1 -135.5,0.1 -4.7,0 -7.2,-1.4 -9.5,-5.4 -14.6,-25.7 -29.5,-51.2 -45,-78.2 z"
   id="path3806"
   inkscape:connector-curvature="0"
   style="fill:#91d5d7" />
		<path
   class="st5"
   d="m 104.2,294.6 c -7.1,-12.2 -13.6,-23.4 -19.9,-34.7 -0.8,-1.5 -0.7,-4.2 0.2,-5.7 24,-41.9 48.2,-83.6 72.4,-125.4 0.2,-0.3 0.6,-0.6 1.4,-1.3 6.7,11.6 13.5,23.1 20,34.7 0.6,1.1 0.2,3.3 -0.5,4.6 -24.3,42.3 -48.7,84.5 -73.6,127.8 z"
   id="path3808"
   inkscape:connector-curvature="0"
   style="fill:#255960" />
		<path
   class="st7"
   d="m 388.7,159.7 c -13.1,0 -26.1,0.1 -39.1,-0.1 -1.5,0 -3.4,-1.6 -4.2,-3 C 321.5,115.3 297.7,74 273.9,32.7 c -0.3,-0.5 -0.3,-1.2 -0.6,-2.5 13.4,0 26.6,-0.1 39.7,0.1 1.3,0 3.1,1.4 3.8,2.6 24.1,41.7 48,83.4 72,125.1 0.1,0.1 0,0.4 -0.1,1.7 z"
   id="path3810"
   inkscape:connector-curvature="0"
   style="fill:#91d5d7" />
		<path
   class="st6"
   d="m 246,343.6 c 6.6,-11.4 13.3,-22.9 20.1,-34.3 0.7,-1.1 2.8,-1.8 4.3,-1.8 47.9,0 95.9,0.1 143.8,0.2 0.3,0 0.7,0.4 1.7,0.9 -6.7,11.6 -13.3,23.1 -20.1,34.6 -0.6,0.9 -2.5,1.6 -3.7,1.6 -48.4,0 -96.7,-0.1 -145.1,-0.1 -0.2,-0.1 -0.3,-0.4 -1,-1.1 z"
   id="path3812"
   inkscape:connector-curvature="0"
   style="fill:#58c2cb" />
		<path
   class="st5"
   d="m 237.5,340.7 c -12.7,-22 -24.8,-42.9 -36.9,-64 -3.9,-6.8 -10.5,-13.8 -10.5,-20.7 0,-6.9 6.8,-13.7 10.6,-20.6 3,-5.4 6.2,-10.7 9.8,-16.9 3.9,6.6 7.4,12.6 10.8,18.5 11.8,20.5 23.5,41 35.5,61.3 2,3.4 2,5.8 0,9.2 -6.5,10.8 -12.6,21.6 -19.3,33.2 z"
   id="path3814"
   inkscape:connector-curvature="0"
   style="fill:#255960" />
		<path
   class="st6"
   d="m 390.4,168.5 c -16.1,28 -31.5,54.7 -47,81.3 -0.8,1.4 -3.3,2.6 -5.1,2.6 -12.8,0.2 -25.5,0.1 -39.4,0.1 1.2,-2.4 2,-4.2 3,-5.9 14,-24.3 28.2,-48.6 42.1,-72.9 2.1,-3.7 4.4,-5.4 8.9,-5.3 12,0.3 24.1,0.1 37.5,0.1 z"
   id="path3816"
   inkscape:connector-curvature="0"
   style="fill:#58c2cb" />
		<path
   class="st7"
   d="m 165.7,122.7 c 9.8,0 18.3,0 26.8,0 21.3,0 42.6,0.1 63.8,-0.1 4.2,0 6.5,1.3 8.5,5 5.7,10.4 11.8,20.6 18.2,31.7 -2.8,0.2 -4.8,0.5 -6.7,0.5 -27.7,0 -55.3,-0.1 -83,0.1 -4.6,0 -7.3,-1.4 -9.5,-5.5 C 178.2,144 172.2,134 165.7,122.7 Z"
   id="path3818"
   inkscape:connector-curvature="0"
   style="fill:#91d5d7" />
	</g></g>
</svg>